<svg xmlns="http://www.w3.org/2000/svg" width="130" height="112" viewBox="0 0 130 112">
  <g id="Alert_grey_my_catalogue_no_data_found" data-name="Alert grey my catalogue no data found" transform="translate(-149 -342)">
    <g id="Polygon_1" data-name="Polygon 1" transform="translate(149 342)" fill="#fff">
      <path d="M 112.6343536376953 110 L 17.36565017700195 110 C 14.46973323822021 110 11.87806701660156 108.5017547607422 10.43293380737305 105.9921875 C 8.987799644470215 103.4826354980469 8.992866516113281 100.4890670776367 10.44646644592285 97.98442077636719 L 58.08081817626953 15.90675067901611 C 59.52875137329102 13.41183471679688 62.1153678894043 11.92233467102051 65 11.92233467102051 C 67.88461303710938 11.92233467102051 70.47122955322266 13.41183471679688 71.91916656494141 15.90675067901611 L 119.5535354614258 97.98442077636719 C 121.0071334838867 100.4890670776367 121.0121994018555 103.4826354980469 119.5670700073242 105.9921875 C 118.1219329833984 108.5017547607422 115.5302658081055 110 112.6343536376953 110 Z" stroke="none"/>
      <path d="M 64.99997711181641 13.92232513427734 C 63.96755981445312 13.92232513427734 62.95552062988281 14.18016815185547 62.07330322265625 14.66798400878906 C 61.13416290283203 15.18726348876953 60.37287902832031 15.94180297851562 59.81060028076172 16.91064453125 L 12.17626190185547 98.98830413818359 C 11.61181640625 99.96084594726562 11.33429718017578 100.9998245239258 11.35137939453125 102.0763397216797 C 11.36741638183594 103.0874481201172 11.64913940429688 104.0964050292969 12.16612243652344 104.994140625 C 12.68308258056641 105.8919067382812 13.41432189941406 106.6420059204102 14.28076171875 107.1634063720703 C 15.20326232910156 107.7185211181641 16.24118041992188 108.0000076293945 17.36563873291016 108.0000076293945 L 112.6343612670898 108.0000076293945 C 113.7588195800781 108.0000076293945 114.7967224121094 107.7185211181641 115.71923828125 107.1634063720703 C 116.5856781005859 106.6420059204102 117.3169174194336 105.8918838500977 117.8338775634766 104.994140625 C 118.3508377075195 104.0964050292969 118.6325836181641 103.0874481201172 118.6486206054688 102.0763397216797 C 118.6657028198242 100.9998016357422 118.38818359375 99.96084594726562 117.8237609863281 98.98830413818359 L 70.18937683105469 16.91064453125 C 69.62710571289062 15.94180297851562 68.86582183837891 15.18726348876953 67.92668151855469 14.66798400878906 C 67.04446411132812 14.18016815185547 66.03242492675781 13.92232513427734 64.99997711181641 13.92232513427734 M 64.99999237060547 9.922332763671875 C 68.36098480224609 9.922332763671875 71.72198486328125 11.58250427246094 73.64895629882812 14.90284729003906 L 121.2833404541016 96.98050689697266 C 125.1523590087891 103.6471405029297 120.3423614501953 112.0000076293945 112.6343612670898 112.0000076293945 L 17.36563873291016 112.0000076293945 C 9.657623291015625 112.0000076293945 4.847640991210938 103.6471405029297 8.716659545898438 96.98050689697266 L 56.35102081298828 14.90284729003906 C 58.27799987792969 11.58250427246094 61.63899230957031 9.922332763671875 64.99999237060547 9.922332763671875 Z" stroke="none" fill="#9e9e9e"/>
    </g>
    <path id="Path_416" data-name="Path 416" d="M-1.805-14.248h4.19L3.528-49h-6.4ZM.328,1A3.8,3.8,0,0,0,4.29-2.688,3.7,3.7,0,0,0,.328-6.3,3.773,3.773,0,0,0-3.71-2.688,3.873,3.873,0,0,0,.328,1Z" transform="translate(213.71 431)" fill="#9e9e9e"/>
  </g>
</svg>
